<?xml version="1.0" standalone="no"?>
<!DOCTYPE svg PUBLIC "-//W3C//DTD SVG 20010904//EN"
 "http://www.w3.org/TR/2001/REC-SVG-20010904/DTD/svg10.dtd">
<svg version="1.0" xmlns="http://www.w3.org/2000/svg"
 width="500.000000pt" height="500.000000pt" viewBox="0 0 500.000000 500.000000"
 preserveAspectRatio="xMidYMid meet">

<g transform="translate(0.000000,500.000000) scale(0.100000,-0.100000)"
fill="#000000" stroke="none">
<path d="M4205 4280 l-39 -40 37 -37 37 -38 40 40 40 41 -38 37 -38 37 -39
-40z"/>
<path d="M1481 4290 c-101 -21 -199 -100 -244 -198 -34 -73 -31 -198 6 -273
30 -63 92 -125 159 -161 37 -20 58 -23 143 -23 89 0 106 3 150 27 62 32 129
103 158 166 32 68 31 197 -2 270 -60 134 -227 221 -370 192z m167 -129 c81
-41 127 -122 120 -211 -5 -71 -34 -126 -86 -167 -81 -62 -193 -62 -274 0 -60
47 -83 97 -83 184 0 63 3 76 30 114 73 103 187 134 293 80z"/>
<path d="M3190 4015 l-34 -35 37 -38 37 -37 37 37 37 38 -34 35 c-19 19 -37
35 -40 35 -3 0 -21 -16 -40 -35z"/>
<path d="M947 3962 l-37 -38 38 -37 38 -37 37 38 37 38 -38 37 -38 37 -37 -38z"/>
<path d="M2067 3792 l-37 -38 38 -37 38 -37 38 39 38 39 -36 36 c-20 20 -38
36 -39 36 -2 0 -20 -17 -40 -38z"/>
<path d="M3750 3625 l-34 -35 39 -40 39 -40 38 37 38 37 -37 38 c-20 21 -40
38 -43 38 -3 0 -21 -16 -40 -35z"/>
<path d="M2355 3326 c-173 -27 -330 -105 -463 -231 -46 -43 -102 -106 -124
-138 -52 -77 -111 -204 -133 -289 -10 -38 -23 -68 -30 -68 -21 0 -178 -85
-285 -154 -343 -223 -565 -432 -601 -568 -37 -138 87 -256 311 -294 189 -32
527 -8 878 62 l132 27 79 -36 c136 -63 226 -81 386 -81 163 1 242 18 382 84
99 46 169 96 250 178 63 64 149 191 183 269 21 50 26 54 143 120 170 95 395
246 509 342 240 201 349 383 317 529 -18 85 -86 134 -218 158 -194 34 -632 -5
-897 -81 l-91 -27 -87 57 c-147 96 -286 141 -459 149 -59 3 -136 0 -182 -8z
m356 -127 c212 -59 393 -208 493 -407 l27 -54 -23 7 c-42 14 -178 85 -284 150
-132 81 -270 185 -359 270 l-70 66 72 -6 c40 -3 105 -15 144 -26z m-282 -61
c110 -103 240 -206 371 -293 118 -78 357 -204 429 -226 37 -11 41 -15 47 -55
8 -56 4 -66 -39 -89 l-36 -19 -113 56 c-138 69 -319 187 -453 295 -186 150
-380 371 -344 394 34 21 62 8 138 -63z m-204 -63 c135 -203 469 -481 758 -630
53 -27 97 -53 97 -57 0 -8 -200 -105 -234 -114 -28 -7 -313 135 -474 236 -213
134 -492 365 -492 409 0 25 141 155 217 200 37 22 69 40 70 41 0 0 27 -38 58
-85z m1841 52 c110 -23 138 -59 115 -146 -79 -299 -797 -774 -1556 -1029 -521
-175 -1019 -274 -1370 -274 -166 0 -273 15 -338 48 -49 25 -97 75 -97 101 0
89 188 277 465 465 123 84 297 188 314 188 30 0 5 -43 -56 -95 -247 -210 -255
-393 -21 -467 64 -20 92 -23 233 -22 252 1 520 55 860 171 534 183 953 453
1021 656 48 143 -47 240 -264 268 -37 4 -90 8 -118 9 -38 0 -56 5 -69 20 -10
11 -16 22 -14 24 16 15 326 71 499 89 89 10 340 6 396 -6z m-683 -247 c120
-18 171 -59 152 -122 -11 -35 -71 -112 -111 -143 -19 -15 -36 -25 -38 -24 -1
2 -12 40 -24 84 -13 44 -36 109 -53 144 -16 35 -29 65 -29 67 0 6 29 4 103 -6z
m-1275 -321 c134 -97 287 -193 444 -276 70 -38 128 -71 128 -75 0 -10 -308
-109 -340 -110 -14 0 -97 30 -185 66 -88 36 -218 84 -290 107 -71 23 -134 45
-138 50 -5 4 -9 58 -8 120 0 125 22 230 66 327 l25 54 98 -94 c54 -52 144
-128 200 -169z m-471 -342 c12 -46 35 -112 52 -147 16 -36 28 -66 25 -69 -2
-2 -40 0 -83 6 -139 18 -191 61 -161 134 13 30 125 159 139 159 3 0 16 -37 28
-83z m278 -77 c157 -55 225 -82 225 -90 0 -4 -53 -14 -117 -23 -194 -27 -171
-34 -220 58 -23 44 -43 86 -43 93 0 16 3 15 155 -38z m1255 -97 c0 -34 -145
-194 -224 -246 l-38 -25 -74 48 c-41 27 -75 52 -75 55 0 4 64 33 143 65 79 32
168 69 198 83 59 28 70 31 70 20z m-474 -264 c46 -27 86 -54 89 -59 6 -10 -67
-34 -154 -50 -112 -21 -287 -6 -383 33 l-33 13 115 32 c63 18 149 43 190 56
41 14 79 25 84 25 4 1 46 -22 92 -50z"/>
<path d="M1507 3232 l-37 -38 38 -37 38 -37 37 38 37 38 -38 37 -38 37 -37
-38z"/>
<path d="M3758 2033 l-37 -38 36 -39 35 -38 39 39 39 39 -38 37 -38 37 -36
-37z"/>
<path d="M3977 1862 l-37 -38 38 -37 38 -37 37 38 37 38 -38 37 -38 37 -37
-38z"/>
<path d="M3692 1637 l-32 -33 40 -39 40 -39 37 37 37 37 -34 35 c-19 19 -39
35 -45 35 -6 0 -25 -15 -43 -33z"/>
<path d="M1505 1210 l-39 -40 34 -35 c19 -19 39 -35 45 -35 6 0 26 16 45 35
l34 35 -40 40 -40 40 -39 -40z"/>
<path d="M3190 1205 l-34 -35 37 -38 37 -37 37 37 37 38 -34 35 c-19 19 -37
35 -40 35 -3 0 -21 -16 -40 -35z"/>
<path d="M3650 1129 c-55 -25 -86 -53 -110 -99 -57 -112 -13 -248 96 -301 87
-42 199 -24 261 43 12 12 31 43 42 68 82 180 -109 371 -289 289z m140 -104
c81 -42 77 -161 -8 -201 -44 -21 -91 -12 -125 24 -36 37 -43 81 -22 126 29 61
94 82 155 51z"/>
<path d="M2067 1042 l-37 -38 40 -39 40 -39 37 37 38 37 -40 40 -41 40 -37
-38z"/>
<path d="M717 792 l-37 -38 33 -32 c18 -18 37 -32 43 -32 6 0 25 16 44 35 l34
35 -34 35 c-19 19 -37 35 -40 35 -3 0 -23 -17 -43 -38z"/>
</g>
</svg>
